# xmcd
#
# Track frame offsets: 
#        150
#        11108
#        18347
#        28756
#        36904
#        48986
#        61286
#        76112
#        88992
#        95382
#        114641
#        122453
#
# Disc length: 1759 seconds
#
# Revision: 0
# Processed by: cddbd v1.5.2PL0 Copyright (c) Steve Scherf et al.
# Submitted via: ExactAudioCopy v0.99pb4
#
DISCID=9106dd0c
DTITLE=Julian Koster - The Singing Saw At Christmastime
DYEAR=2008
DGENRE=Christmas/Holiday
TTITLE0=The First Noel
TTITLE1=Frosty The Snowman
TTITLE2=Silent Night
TTITLE3=Santa Claus Is Coming To Town
TTITLE4=Jingle Bells
TTITLE5=White Christmas
TTITLE6=Silver Bells
TTITLE7=Hark! The Herald Angels Sing
TTITLE8=O' Come All Ye Faithful
TTITLE9=O' Holy Night
TTITLE10=O' Little Town Of Bethlehem
TTITLE11=We Wish You A Merry Christmas
EXTD=
EXTT0=
EXTT1=
EXTT2=
EXTT3=
EXTT4=
EXTT5=
EXTT6=
EXTT7=
EXTT8=
EXTT9=
EXTT10=
EXTT11=
PLAYORDER=
